<svg width="892" height="571" viewBox="0 0 892 571" fill="none" xmlns="http://www.w3.org/2000/svg">
<path d="M298.607 244.929H306.214V252.536H298.607V244.929ZM306.214 244.929H313.821V252.536H306.214V244.929ZM321.429 244.929H329.036V252.536H321.429V244.929ZM329.036 244.929H336.643V252.536H329.036V244.929ZM329.036 252.536H336.643V260.143H329.036V252.536ZM329.036 260.143H336.643V267.75H329.036V260.143ZM336.643 260.143H344.25V267.75H336.643V260.143ZM336.643 252.536H344.25V260.143H336.643V252.536ZM321.429 252.536H329.036V260.143H321.429V252.536ZM306.214 252.536H313.821V260.143H306.214V252.536ZM298.607 252.536H306.214V260.143H298.607V252.536ZM291 252.536H298.607V260.143H291V252.536ZM291 260.143H298.607V267.75H291V260.143ZM298.607 260.143H306.214V267.75H298.607V260.143ZM298.607 267.75H306.214V275.357H298.607V267.75ZM291 267.75H298.607V275.357H291V267.75ZM291 282.964H298.607V290.571H291V282.964ZM298.607 282.964H306.214V290.571H298.607V282.964ZM298.607 275.357H306.214V282.964H298.607V275.357ZM306.214 275.357H313.821V282.964H306.214V275.357ZM306.214 282.964H313.821V290.571H306.214V282.964ZM321.429 282.964H329.036V290.571H321.429V282.964ZM321.429 275.357H329.036V282.964H321.429V275.357ZM329.036 275.357H336.643V282.964H329.036V275.357ZM329.036 282.964H336.643V290.571H329.036V282.964ZM336.643 282.964H344.25V290.571H336.643V282.964ZM336.643 290.571H344.25V298.179H336.643V290.571ZM336.643 298.179H344.25V305.786H336.643V298.179ZM329.036 298.179H336.643V305.786H329.036V298.179ZM329.036 290.571H336.643V298.179H329.036V290.571ZM336.643 305.786H344.25V313.393H336.643V305.786ZM329.036 305.786H336.643V313.393H329.036V305.786ZM329.036 313.393H336.643V321H329.036V313.393ZM321.429 313.393H329.036V321H321.429V313.393ZM321.429 305.786H329.036V313.393H321.429V305.786ZM306.214 305.786H313.821V313.393H306.214V305.786ZM306.214 313.393H313.821V321H306.214V313.393ZM298.607 313.393H306.214V321H298.607V313.393ZM298.607 305.786H306.214V313.393H298.607V305.786ZM291 305.786H298.607V313.393H291V305.786ZM291 298.179H298.607V305.786H291V298.179ZM291 290.571H298.607V298.179H291V290.571ZM298.607 290.571H306.214V298.179H298.607V290.571ZM298.607 298.179H306.214V305.786H298.607V298.179ZM336.643 267.75H344.25V275.357H336.643V267.75ZM329.036 267.75H336.643V275.357H329.036V267.75ZM313.821 244.929H321.429V252.536H313.821V244.929ZM313.821 252.536H321.429V260.143H313.821V252.536ZM313.821 275.357H321.429V282.964H313.821V275.357ZM313.821 282.964H321.429V290.571H313.821V282.964ZM313.821 305.786H321.429V313.393H313.821V305.786ZM313.821 313.393H321.429V321H313.821V313.393ZM351.877 244.929H359.484V252.536H351.877V244.929ZM359.484 244.929H367.091V252.536H359.484V244.929ZM359.484 252.536H367.091V260.143H359.484V252.536ZM359.484 260.143H367.091V267.75H359.484V260.143ZM359.484 267.75H367.091V275.357H359.484V267.75ZM359.484 275.357H367.091V282.964H359.484V275.357ZM359.484 282.964H367.091V290.571H359.484V282.964ZM351.877 282.964H359.484V290.571H351.877V282.964ZM351.877 290.571H359.484V298.179H351.877V290.571ZM351.877 298.179H359.484V305.786H351.877V298.179ZM351.877 305.786H359.484V313.393H351.877V305.786ZM351.877 313.393H359.484V321H351.877V313.393ZM359.484 313.393H367.091V321H359.484V313.393ZM359.484 305.786H367.091V313.393H359.484V305.786ZM359.484 298.179H367.091V305.786H359.484V298.179ZM359.484 290.571H367.091V298.179H359.484V290.571ZM351.877 275.357H359.484V282.964H351.877V275.357ZM351.877 267.75H359.484V275.357H351.877V267.75ZM351.877 260.143H359.484V267.75H351.877V260.143ZM351.877 252.536H359.484V260.143H351.877V252.536ZM420.401 321H412.794V313.393H420.401V321ZM420.401 313.393H412.794V305.786H420.401V313.393ZM412.794 313.393H405.186V305.786H412.794V313.393ZM405.186 321H397.579V313.393H405.186V321ZM397.579 321H389.972V313.393H397.579V321ZM389.972 321H382.365V313.393H389.972V321ZM389.972 313.393H382.365V305.786H389.972V313.393ZM397.579 313.393H389.972V305.786H397.579V313.393ZM382.365 313.393H374.758V305.786H382.365V313.393ZM382.365 305.786H374.758V298.179H382.365V305.786ZM382.365 275.357H374.758V267.75H382.365V275.357ZM389.972 275.357H382.365V267.75H389.972V275.357ZM389.972 305.786H382.365V298.179H389.972V305.786ZM397.579 275.357H389.972V267.75H397.579V275.357ZM389.972 267.75H382.365V260.143H389.972V267.75ZM397.579 267.75H389.972V260.143H397.579V267.75ZM405.186 267.75H397.579V260.143H405.186V267.75ZM412.794 267.75H405.186V260.143H412.794V267.75ZM420.401 267.75H412.794V260.143H420.401V267.75ZM420.401 275.357H412.794V267.75H420.401V275.357ZM412.794 275.357H405.186V267.75H412.794V275.357ZM420.401 282.964H412.794V275.357H420.401V282.964ZM428.008 275.357H420.401V267.75H428.008V275.357ZM428.008 282.964H420.401V275.357H428.008V282.964ZM428.008 290.571H420.401V282.964H428.008V290.571ZM428.008 298.179H420.401V290.571H428.008V298.179ZM428.008 305.786H420.401V298.179H428.008V305.786ZM428.008 313.393H420.401V305.786H428.008V313.393ZM420.401 305.786H412.794V298.179H420.401V305.786ZM420.401 298.179H412.794V290.571H420.401V298.179ZM420.401 290.571H412.794V282.964H420.401V290.571ZM405.186 275.357H397.579V267.75H405.186V275.357ZM405.186 313.393H397.579V305.786H405.186V313.393ZM420.401 313.393H428.008V321H420.401V313.393ZM405.186 282.964H412.794V290.571H405.186V282.964ZM397.579 282.964H405.186V290.571H397.579V282.964ZM389.972 282.964H397.579V290.571H389.972V282.964ZM382.365 282.964H389.972V290.571H382.365V282.964ZM374.758 290.571H382.365V298.179H374.758V290.571ZM382.365 290.571H389.972V298.179H382.365V290.571ZM405.186 290.571H412.794V298.179H405.186V290.571ZM397.579 290.571H405.186V298.179H397.579V290.571ZM389.972 290.571H397.579V298.179H389.972V290.571ZM435.635 267.75H443.242V275.357H435.635V267.75ZM435.635 260.143H443.242V267.75H435.635V260.143ZM443.242 260.143H450.849V267.75H443.242V260.143ZM443.242 267.75H450.849V275.357H443.242V267.75ZM443.242 275.357H450.849V282.964H443.242V275.357ZM443.242 282.964H450.849V290.571H443.242V282.964ZM443.242 290.571H450.849V298.179H443.242V290.571ZM435.635 290.571H443.242V298.179H435.635V290.571ZM435.635 282.964H443.242V290.571H435.635V282.964ZM435.635 275.357H443.242V282.964H435.635V275.357ZM435.635 298.179H443.242V305.786H435.635V298.179ZM443.242 298.179H450.849V305.786H443.242V298.179ZM443.242 305.786H450.849V313.393H443.242V305.786ZM443.242 313.393H450.849V321H443.242V313.393ZM435.635 313.393H443.242V321H435.635V313.393ZM435.635 305.786H443.242V313.393H435.635V305.786ZM473.67 313.393H481.278V321H473.67V313.393ZM481.278 305.786H488.885V313.393H481.278V305.786ZM481.278 298.179H488.885V305.786H481.278V298.179ZM481.278 290.571H488.885V298.179H481.278V290.571ZM481.278 282.964H488.885V290.571H481.278V282.964ZM481.278 275.357H488.885V282.964H481.278V275.357ZM481.278 267.75H488.885V275.357H481.278V267.75ZM473.67 282.964H481.278V290.571H473.67V282.964ZM473.67 290.571H481.278V298.179H473.67V290.571ZM473.67 298.179H481.278V305.786H473.67V298.179ZM473.67 305.786H481.278V313.393H473.67V305.786ZM473.67 275.357H481.278V282.964H473.67V275.357ZM450.849 267.75H458.456V275.357H450.849V267.75ZM458.456 267.75H466.063V275.357H458.456V267.75ZM466.063 267.75H473.67V275.357H466.063V267.75ZM466.063 260.143H473.67V267.75H466.063V260.143ZM473.67 260.143H481.278V267.75H473.67V260.143ZM473.67 267.75H481.278V275.357H473.67V267.75ZM458.456 260.143H466.063V267.75H458.456V260.143ZM435.635 244.929H443.242V252.536H435.635V244.929ZM443.242 244.929H450.849V252.536H443.242V244.929ZM443.242 252.536H450.849V260.143H443.242V252.536ZM435.635 252.536H443.242V260.143H435.635V252.536ZM450.849 313.393H458.456V321H450.849V313.393ZM458.456 313.393H466.063V321H458.456V313.393ZM466.063 313.393H473.67V321H466.063V313.393ZM466.063 305.786H473.67V313.393H466.063V305.786ZM458.456 305.786H466.063V313.393H458.456V305.786ZM450.849 305.786H458.456V313.393H450.849V305.786ZM496.512 267.75H504.119V275.357H496.512V267.75ZM504.119 275.357H511.726V282.964H504.119V275.357ZM496.512 275.357H504.119V282.964H496.512V275.357ZM496.512 282.964H504.119V290.571H496.512V282.964ZM504.119 282.964H511.726V290.571H504.119V282.964ZM504.119 290.571H511.726V298.179H504.119V290.571ZM511.726 290.571H519.333V298.179H511.726V290.571ZM519.333 290.571H526.94V298.179H519.333V290.571ZM526.94 282.964H534.547V290.571H526.94V282.964ZM519.333 282.964H526.94V290.571H519.333V282.964ZM511.726 282.964H519.333V290.571H511.726V282.964ZM526.94 290.571H534.547V298.179H526.94V290.571ZM534.547 290.571H542.155V298.179H534.547V290.571ZM534.547 298.179H542.155V305.786H534.547V298.179ZM526.94 298.179H534.547V305.786H526.94V298.179ZM526.94 305.786H534.547V313.393H526.94V305.786ZM534.547 305.786H542.155V313.393H534.547V305.786ZM526.94 313.393H534.547V321H526.94V313.393ZM519.333 305.786H526.94V313.393H519.333V305.786ZM511.726 305.786H519.333V313.393H511.726V305.786ZM504.119 305.786H511.726V313.393H504.119V305.786ZM496.512 305.786H504.119V313.393H496.512V305.786ZM504.119 313.393H511.726V321H504.119V313.393ZM511.726 313.393H519.333V321H511.726V313.393ZM519.333 313.393H526.94V321H519.333V313.393ZM534.547 267.75H542.155V275.357H534.547V267.75ZM526.94 267.75H534.547V275.357H526.94V267.75ZM526.94 260.143H534.547V267.75H526.94V260.143ZM519.333 260.143H526.94V267.75H519.333V260.143ZM511.726 260.143H519.333V267.75H511.726V260.143ZM504.119 260.143H511.726V267.75H504.119V260.143ZM504.119 267.75H511.726V275.357H504.119V267.75ZM511.726 267.75H519.333V275.357H511.726V267.75ZM519.333 267.75H526.94V275.357H519.333V267.75ZM549.762 305.786H557.369V313.393H549.762V305.786ZM557.369 305.786H564.976V313.393H557.369V305.786ZM557.369 313.393H564.976V321H557.369V313.393ZM549.762 313.393H557.369V321H549.762V313.393ZM587.857 260.143H595.464V267.75H587.857V260.143ZM580.25 260.143H587.857V267.75H580.25V260.143ZM580.25 267.75H587.857V275.357H580.25V267.75ZM587.857 267.75H595.464V275.357H587.857V267.75ZM595.464 260.143H603.071V267.75H595.464V260.143ZM603.071 260.143H610.678V267.75H603.071V260.143ZM610.678 260.143H618.285V267.75H610.678V260.143ZM610.678 267.75H618.285V275.357H610.678V267.75ZM603.071 267.75H610.678V275.357H603.071V267.75ZM618.285 267.75H625.893V275.357H618.285V267.75ZM618.285 275.357H625.893V282.964H618.285V275.357ZM618.285 298.179H625.893V305.786H618.285V298.179ZM618.285 305.786H625.893V313.393H618.285V305.786ZM610.678 305.786H618.285V313.393H610.678V305.786ZM610.678 298.179H618.285V305.786H610.678V298.179ZM610.678 275.357H618.285V282.964H610.678V275.357ZM603.071 305.786H610.678V313.393H603.071V305.786ZM610.678 313.393H618.285V321H610.678V313.393ZM603.071 313.393H610.678V321H603.071V313.393ZM595.464 313.393H603.071V321H595.464V313.393ZM587.857 313.393H595.464V321H587.857V313.393ZM580.25 313.393H587.857V321H580.25V313.393ZM580.25 305.786H587.857V313.393H580.25V305.786ZM587.857 305.786H595.464V313.393H587.857V305.786ZM580.25 298.179H587.857V305.786H580.25V298.179ZM572.643 305.786H580.25V313.393H572.643V305.786ZM572.643 298.179H580.25V305.786H572.643V298.179ZM572.643 290.571H580.25V298.179H572.643V290.571ZM572.643 282.964H580.25V290.571H572.643V282.964ZM572.643 275.357H580.25V282.964H572.643V275.357ZM572.643 267.75H580.25V275.357H572.643V267.75ZM580.25 275.357H587.857V282.964H580.25V275.357ZM580.25 282.964H587.857V290.571H580.25V282.964ZM580.25 290.571H587.857V298.179H580.25V290.571ZM595.464 305.786H603.071V313.393H595.464V305.786ZM595.464 267.75H603.071V275.357H595.464V267.75ZM648.734 260.143H656.341V267.75H648.734V260.143ZM641.127 260.143H648.734V267.75H641.127V260.143ZM641.127 267.75H648.734V275.357H641.127V267.75ZM648.734 267.75H656.341V275.357H648.734V267.75ZM656.341 260.143H663.948V267.75H656.341V260.143ZM663.948 260.143H671.555V267.75H663.948V260.143ZM671.555 260.143H679.162V267.75H671.555V260.143ZM671.555 267.75H679.162V275.357H671.555V267.75ZM663.948 267.75H671.555V275.357H663.948V267.75ZM671.555 282.964H679.162V290.571H671.555V282.964ZM679.162 267.75H686.77V275.357H679.162V267.75ZM679.162 275.357H686.77V282.964H679.162V275.357ZM679.162 282.964H686.77V290.571H679.162V282.964ZM679.162 290.571H686.77V298.179H679.162V290.571ZM679.162 298.179H686.77V305.786H679.162V298.179ZM679.162 305.786H686.77V313.393H679.162V305.786ZM671.555 305.786H679.162V313.393H671.555V305.786ZM671.555 298.179H679.162V305.786H671.555V298.179ZM671.555 290.571H679.162V298.179H671.555V290.571ZM671.555 275.357H679.162V282.964H671.555V275.357ZM663.948 305.786H671.555V313.393H663.948V305.786ZM671.555 313.393H679.162V321H671.555V313.393ZM663.948 313.393H671.555V321H663.948V313.393ZM656.341 313.393H663.948V321H656.341V313.393ZM648.734 313.393H656.341V321H648.734V313.393ZM641.127 313.393H648.734V321H641.127V313.393ZM641.127 305.786H648.734V313.393H641.127V305.786ZM648.734 305.786H656.341V313.393H648.734V305.786ZM641.127 298.179H648.734V305.786H641.127V298.179ZM633.52 305.786H641.127V313.393H633.52V305.786ZM633.52 298.179H641.127V305.786H633.52V298.179ZM633.52 290.571H641.127V298.179H633.52V290.571ZM633.52 282.964H641.127V290.571H633.52V282.964ZM633.52 275.357H641.127V282.964H633.52V275.357ZM633.52 267.75H641.127V275.357H633.52V267.75ZM641.127 275.357H648.734V282.964H641.127V275.357ZM641.127 282.964H648.734V290.571H641.127V282.964ZM641.127 290.571H648.734V298.179H641.127V290.571ZM656.341 305.786H663.948V313.393H656.341V305.786ZM656.341 267.75H663.948V275.357H656.341V267.75ZM694.396 267.75H702.004V275.357H694.396V267.75ZM694.396 260.143H702.004V267.75H694.396V260.143ZM702.004 260.143H709.611V267.75H702.004V260.143ZM702.004 267.75H709.611V275.357H702.004V267.75ZM702.004 275.357H709.611V282.964H702.004V275.357ZM702.004 282.964H709.611V290.571H702.004V282.964ZM702.004 290.571H709.611V298.179H702.004V290.571ZM694.396 290.571H702.004V298.179H694.396V290.571ZM694.396 282.964H702.004V290.571H694.396V282.964ZM694.396 275.357H702.004V282.964H694.396V275.357ZM694.396 298.179H702.004V305.786H694.396V298.179ZM702.004 298.179H709.611V305.786H702.004V298.179ZM702.004 305.786H709.611V313.393H702.004V305.786ZM702.004 313.393H709.611V321H702.004V313.393ZM694.396 313.393H702.004V321H694.396V313.393ZM694.396 305.786H702.004V313.393H694.396V305.786ZM724.825 313.393H732.432V321H724.825V313.393ZM732.432 313.393H740.039V321H732.432V313.393ZM732.432 305.786H740.039V313.393H732.432V305.786ZM732.432 298.179H740.039V305.786H732.432V298.179ZM732.432 290.571H740.039V298.179H732.432V290.571ZM732.432 282.964H740.039V290.571H732.432V282.964ZM732.432 275.357H740.039V282.964H732.432V275.357ZM732.432 267.75H740.039V275.357H732.432V267.75ZM724.825 282.964H732.432V290.571H724.825V282.964ZM724.825 290.571H732.432V298.179H724.825V290.571ZM724.825 298.179H732.432V305.786H724.825V298.179ZM724.825 305.786H732.432V313.393H724.825V305.786ZM724.825 275.357H732.432V282.964H724.825V275.357ZM709.611 267.75H717.218V275.357H709.611V267.75ZM717.218 267.75H724.825V275.357H717.218V267.75ZM724.825 260.143H732.432V267.75H724.825V260.143ZM724.825 267.75H732.432V275.357H724.825V267.75ZM717.218 260.143H724.825V267.75H717.218V260.143ZM755.254 313.393H762.861V321H755.254V313.393ZM762.861 313.393H770.468V321H762.861V313.393ZM762.861 305.786H770.468V313.393H762.861V305.786ZM762.861 298.179H770.468V305.786H762.861V298.179ZM762.861 290.571H770.468V298.179H762.861V290.571ZM762.861 282.964H770.468V290.571H762.861V282.964ZM762.861 275.357H770.468V282.964H762.861V275.357ZM762.861 267.75H770.468V275.357H762.861V267.75ZM755.254 282.964H762.861V290.571H755.254V282.964ZM755.254 290.571H762.861V298.179H755.254V290.571ZM755.254 298.179H762.861V305.786H755.254V298.179ZM755.254 305.786H762.861V313.393H755.254V305.786ZM755.254 275.357H762.861V282.964H755.254V275.357ZM740.039 267.75H747.646V275.357H740.039V267.75ZM747.646 267.75H755.254V275.357H747.646V267.75ZM755.254 260.143H762.861V267.75H755.254V260.143ZM755.254 267.75H762.861V275.357H755.254V267.75ZM747.646 260.143H755.254V267.75H747.646V260.143Z" fill="#00BFD3"/>
<rect x="112" y="289" width="8" height="8" fill="#18808B"/>
<rect x="112" y="281" width="8" height="8" fill="#18808B"/>
<rect x="112" y="273" width="8" height="8" fill="#18808B"/>
<rect x="112" y="265" width="8" height="8" fill="#18808B"/>
<rect x="112" y="257" width="8" height="8" fill="#18808B"/>
<rect x="112" y="249" width="8" height="8" fill="#18808B"/>
<rect x="112" y="241" width="8" height="8" fill="#18808B"/>
<rect x="112" y="233" width="8" height="8" fill="#18808B"/>
<rect x="112" y="225" width="8" height="8" fill="#18808B"/>
<rect x="112" y="217" width="8" height="8" fill="#18808B"/>
<rect x="112" y="209" width="8" height="8" fill="#18808B"/>
<rect x="112" y="201" width="8" height="8" fill="#18808B"/>
<rect x="112" y="193" width="8" height="8" fill="#18808B"/>
<rect x="112" y="185" width="8" height="8" fill="#18808B"/>
<rect x="112" y="297" width="8" height="8" fill="#18808B"/>
<rect x="112" y="305" width="8" height="8" fill="#18808B"/>
<rect x="112" y="313" width="8" height="8" fill="#18808B"/>
<rect x="112" y="321" width="8" height="8" fill="#18808B"/>
<rect x="112" y="329" width="8" height="8" fill="#18808B"/>
<rect x="112" y="337" width="8" height="8" fill="#18808B"/>
<rect x="112" y="345" width="8" height="8" fill="#18808B"/>
<rect x="112" y="353" width="8" height="8" fill="#18808B"/>
<rect x="112" y="361" width="8" height="8" fill="#18808B"/>
<rect x="112" y="369" width="8" height="8" fill="#18808B"/>
<rect x="224" y="289" width="8" height="8" fill="#18808B"/>
<rect x="224" y="281" width="8" height="8" fill="#18808B"/>
<rect x="224" y="273" width="8" height="8" fill="#18808B"/>
<rect x="224" y="265" width="8" height="8" fill="#18808B"/>
<rect x="224" y="257" width="8" height="8" fill="#18808B"/>
<rect x="224" y="249" width="8" height="8" fill="#18808B"/>
<rect x="224" y="241" width="8" height="8" fill="#18808B"/>
<rect x="224" y="233" width="8" height="8" fill="#18808B"/>
<rect x="224" y="225" width="8" height="8" fill="#18808B"/>
<rect x="224" y="217" width="8" height="8" fill="#18808B"/>
<rect x="224" y="209" width="8" height="8" fill="#18808B"/>
<rect x="224" y="201" width="8" height="8" fill="#18808B"/>
<rect x="224" y="193" width="8" height="8" fill="#18808B"/>
<rect x="224" y="185" width="8" height="8" fill="#18808B"/>
<rect x="224" y="297" width="8" height="8" fill="#18808B"/>
<rect x="224" y="305" width="8" height="8" fill="#18808B"/>
<rect x="224" y="313" width="8" height="8" fill="#18808B"/>
<rect x="224" y="321" width="8" height="8" fill="#18808B"/>
<rect x="224" y="329" width="8" height="8" fill="#18808B"/>
<rect x="224" y="337" width="8" height="8" fill="#18808B"/>
<rect x="224" y="345" width="8" height="8" fill="#18808B"/>
<rect x="224" y="353" width="8" height="8" fill="#18808B"/>
<rect x="224" y="361" width="8" height="8" fill="#18808B"/>
<rect x="224" y="369" width="8" height="8" fill="#18808B"/>
<rect x="120" y="369" width="8" height="8" fill="#18808B"/>
<rect x="120" y="377" width="8" height="8" fill="#18808B"/>
<rect x="128" y="377" width="8" height="8" fill="#18808B"/>
<rect x="128" y="385" width="8" height="8" fill="#18808B"/>
<rect x="136" y="385" width="8" height="8" fill="#18808B"/>
<rect x="136" y="393" width="8" height="8" fill="#18808B"/>
<rect x="144" y="393" width="8" height="8" fill="#18808B"/>
<rect x="152" y="393" width="8" height="8" fill="#18808B"/>
<rect x="152" y="401" width="8" height="8" fill="#18808B"/>
<rect x="160" y="393" width="8" height="8" fill="#18808B"/>
<rect x="168" y="393" width="8" height="8" fill="#18808B"/>
<rect x="160" y="401" width="8" height="8" fill="#18808B"/>
<rect x="168" y="401" width="8" height="8" fill="#18808B"/>
<rect x="200" y="393" width="8" height="8" fill="#18808B"/>
<rect x="176" y="401" width="8" height="8" fill="#18808B"/>
<rect x="184" y="401" width="8" height="8" fill="#18808B"/>
<rect x="176" y="393" width="8" height="8" fill="#18808B"/>
<rect x="216" y="369" width="8" height="8" fill="#18808B"/>
<rect x="216" y="377" width="8" height="8" fill="#18808B"/>
<rect x="208" y="377" width="8" height="8" fill="#18808B"/>
<rect x="208" y="385" width="8" height="8" fill="#18808B"/>
<rect x="200" y="385" width="8" height="8" fill="#18808B"/>
<rect x="184" y="393" width="8" height="8" fill="#18808B"/>
<rect x="192" y="393" width="8" height="8" fill="#18808B"/>
<rect x="120" y="185" width="8" height="8" fill="#18808B"/>
<rect x="128" y="193" width="8" height="8" fill="#18808B"/>
<rect x="136" y="193" width="8" height="8" fill="#18808B"/>
<rect x="144" y="201" width="8" height="8" fill="#18808B"/>
<rect x="152" y="201" width="8" height="8" fill="#18808B"/>
<rect x="160" y="201" width="8" height="8" fill="#18808B"/>
<rect x="216" y="185" width="8" height="8" fill="#18808B"/>
<rect x="208" y="193" width="8" height="8" fill="#18808B"/>
<rect x="192" y="201" width="8" height="8" fill="#18808B"/>
<rect x="200" y="193" width="8" height="8" fill="#18808B"/>
<rect x="184" y="201" width="8" height="8" fill="#18808B"/>
<rect x="176" y="201" width="8" height="8" fill="#18808B"/>
<rect x="168" y="201" width="8" height="8" fill="#18808B"/>
<rect width="8" height="8" transform="matrix(1 0 0 -1 120 185)" fill="#18808B"/>
<rect width="8" height="8" transform="matrix(1 0 0 -1 128 177)" fill="#18808B"/>
<rect width="8" height="8" transform="matrix(1 0 0 -1 136 177)" fill="#18808B"/>
<rect width="8" height="8" transform="matrix(1 0 0 -1 144 169)" fill="#18808B"/>
<rect width="8" height="8" transform="matrix(1 0 0 -1 152 169)" fill="#18808B"/>
<rect width="8" height="8" transform="matrix(1 0 0 -1 160 169)" fill="#18808B"/>
<rect width="8" height="8" transform="matrix(1 0 0 -1 216 185)" fill="#18808B"/>
<rect width="8" height="8" transform="matrix(1 0 0 -1 208 177)" fill="#18808B"/>
<rect width="8" height="8" transform="matrix(1 0 0 -1 192 169)" fill="#18808B"/>
<rect width="8" height="8" transform="matrix(1 0 0 -1 200 177)" fill="#18808B"/>
<rect width="8" height="8" transform="matrix(1 0 0 -1 184 169)" fill="#18808B"/>
<rect width="8" height="8" transform="matrix(1 0 0 -1 176 169)" fill="#18808B"/>
<rect width="8" height="8" transform="matrix(1 0 0 -1 168 169)" fill="#18808B"/>
<rect x="120" y="193" width="8" height="8" fill="white" fill-opacity="0.21"/>
<rect x="128" y="201" width="8" height="8" fill="white" fill-opacity="0.21"/>
<rect x="136" y="201" width="8" height="8" fill="white" fill-opacity="0.21"/>
<rect x="144" y="209" width="8" height="8" fill="white" fill-opacity="0.21"/>
<rect x="152" y="209" width="8" height="8" fill="white" fill-opacity="0.21"/>
<rect x="160" y="209" width="8" height="8" fill="white" fill-opacity="0.21"/>
<rect x="168" y="209" width="8" height="8" fill="white" fill-opacity="0.21"/>
<rect x="176" y="209" width="8" height="8" fill="white" fill-opacity="0.21"/>
<rect x="184" y="209" width="8" height="8" fill="white" fill-opacity="0.21"/>
<rect x="192" y="209" width="8" height="8" fill="white" fill-opacity="0.21"/>
<rect x="200" y="201" width="8" height="8" fill="white" fill-opacity="0.21"/>
<rect x="208" y="201" width="8" height="8" fill="white" fill-opacity="0.21"/>
<rect x="216" y="193" width="8" height="8" fill="white" fill-opacity="0.21"/>
<rect x="128" y="177" width="8" height="8" fill="white" fill-opacity="0.21"/>
<rect x="136" y="177" width="8" height="8" fill="white" fill-opacity="0.21"/>
<rect x="144" y="169" width="8" height="8" fill="white" fill-opacity="0.21"/>
<rect x="152" y="169" width="8" height="8" fill="white" fill-opacity="0.21"/>
<rect x="160" y="169" width="8" height="8" fill="white" fill-opacity="0.21"/>
<rect x="192" y="169" width="8" height="8" fill="white" fill-opacity="0.21"/>
<rect x="208" y="177" width="8" height="8" fill="white" fill-opacity="0.21"/>
<rect x="200" y="177" width="8" height="8" fill="white" fill-opacity="0.21"/>
<rect x="184" y="169" width="8" height="8" fill="white" fill-opacity="0.21"/>
<rect x="176" y="169" width="8" height="8" fill="white" fill-opacity="0.21"/>
<rect x="168" y="169" width="8" height="8" fill="white" fill-opacity="0.21"/>
<path d="M139 295H155V303H163V311H171V303H179V295H203V359.5H195.5V367H187.5V375H155V367H147V359.5H139V295Z" fill="#00BFD3"/>
<path fill-rule="evenodd" clip-rule="evenodd" d="M139 287H147H155V295H147H139V287ZM163 311H155H147H139V303V295H131V303V311V319V327V335V343V351V359V367H139V375H147V383H155H163H171H179H187H195V375H203V367H211V359V351V343V335V327V319V311V303V295H203V287H195H187H179V295H171V303H163V295H155V303H163V311ZM203 303V311V319V327V335V343V351V359H195V367H187V375H179H171H163H155V367H147V359H139V351V343V335V327V319H147V327H155V319H163V311H171V303H179V295H187H195V303H203Z" fill="#006081"/>
<rect x="163" y="311" width="8" height="8" fill="#006081"/>
<rect x="171" y="303" width="8" height="8" fill="#006081"/>
<rect x="155" y="319" width="8" height="8" fill="#006081"/>
</svg>
